<?xml version="1.0" encoding="UTF-8" standalone="no"?>
<svg
   xmlns:dc="http://purl.org/dc/elements/1.1/"
   xmlns:cc="http://creativecommons.org/ns#"
   xmlns:rdf="http://www.w3.org/1999/02/22-rdf-syntax-ns#"
   xmlns:svg="http://www.w3.org/2000/svg"
   xmlns="http://www.w3.org/2000/svg"
   xmlns:sodipodi="http://sodipodi.sourceforge.net/DTD/sodipodi-0.dtd"
   xmlns:inkscape="http://www.inkscape.org/namespaces/inkscape"
   inkscape:version="1.1-dev (1:0.92.0+devel+202004230040+b09211e)"
   sodipodi:docname="warning.svg"
   id="svg8"
   version="1.1"
   viewBox="0 0 8.4666664 8.466667"
   height="32"
   width="32">
  <sodipodi:namedview
     inkscape:current-layer="svg8"
     inkscape:window-maximized="0"
     inkscape:window-y="20"
     inkscape:window-x="0"
     inkscape:cy="16"
     inkscape:cx="9.4821429"
     inkscape:zoom="28"
     showgrid="false"
     id="namedview8"
     inkscape:window-height="1040"
     inkscape:window-width="1920"
     inkscape:pageshadow="2"
     inkscape:pageopacity="0"
     guidetolerance="10"
     gridtolerance="10"
     objecttolerance="10"
     borderopacity="1"
     bordercolor="#666666"
     pagecolor="#ffffff" />
  <title
     id="title833">Warning symbol</title>
  <defs
     id="defs2" />
  <metadata
     id="metadata5">
    <rdf:RDF>
      <cc:Work
         rdf:about="">
        <dc:format>image/svg+xml</dc:format>
        <dc:type
           rdf:resource="http://purl.org/dc/dcmitype/StillImage" />
        <dc:title>Warning symbol</dc:title>
        <cc:license
           rdf:resource="http://creativecommons.org/licenses/by-sa/4.0/" />
        <dc:creator>
          <cc:Agent>
            <dc:title />
          </cc:Agent>
        </dc:creator>
      </cc:Work>
      <cc:License
         rdf:about="http://creativecommons.org/licenses/by-sa/4.0/">
        <cc:permits
           rdf:resource="http://creativecommons.org/ns#Reproduction" />
        <cc:permits
           rdf:resource="http://creativecommons.org/ns#Distribution" />
        <cc:requires
           rdf:resource="http://creativecommons.org/ns#Notice" />
        <cc:requires
           rdf:resource="http://creativecommons.org/ns#Attribution" />
        <cc:permits
           rdf:resource="http://creativecommons.org/ns#DerivativeWorks" />
        <cc:requires
           rdf:resource="http://creativecommons.org/ns#ShareAlike" />
      </cc:License>
    </rdf:RDF>
  </metadata>
  <g
     style="stroke-width:1.000125;stroke-miterlimit:4;stroke-dasharray:none;fill:#b3b3b3;fill-opacity:1"
     id="layer1">
    <path
       id="path839"
       style="fill:#b3b3b3;fill-opacity:1;stroke:none;stroke-width:3.78000006;stroke-linecap:square;stroke-linejoin:miter;stroke-miterlimit:4;stroke-dasharray:none;stroke-dashoffset:0;stroke-opacity:1;paint-order:normal"
       d="M 16 1.7050781 A 5.1961522 5.1961522 0 0 0 11.5 4.3046875 L 0.99414062 22.5 A 5.1961522 5.1961522 0 0 0 5.4941406 30.294922 L 26.505859 30.294922 A 5.1961522 5.1961522 0 0 0 31.005859 22.5 L 20.5 4.3046875 A 5.1961522 5.1961522 0 0 0 16 1.7050781 z M 16 4.8398438 C 17.656854 4.8398438 19.101659 6.1861112 19 7.8398438 C 19 7.8398437 18.324973 15.16155 17.957031 18.921875 C 17.857 19.944175 17.027182 20.757812 16 20.757812 C 14.972818 20.757812 14.139219 19.944538 14.042969 18.921875 L 13 7.8398438 C 12.844754 6.1902788 14.343146 4.8398438 16 4.8398438 z M 16 23.042969 A 2.4999999 2.4999999 0 0 1 18.5 25.542969 A 2.4999999 2.4999999 0 0 1 16 28.042969 A 2.4999999 2.4999999 0 0 1 13.5 25.542969 A 2.4999999 2.4999999 0 0 1 16 23.042969 z "
       transform="scale(0.26458333)" />
  </g>
</svg>
